<svg xmlns="http://www.w3.org/2000/svg" viewBox="0 0 256 256" width="256" height="256">
  <defs>
    <linearGradient id="drop" x1="0" y1="0" x2="0" y2="1">
      <stop offset="0%" stop-color="#4FC3F7"/>
      <stop offset="100%" stop-color="#0288D1"/>
    </linearGradient>
  </defs>
  <!-- Water droplet -->
  <path d="M128 18 C128 18 44 110 44 162 a84 84 0 0 0 168 0 C212 110 128 18 128 18 Z" fill="url(#drop)"/>
  <!-- Droplet highlight -->
  <ellipse cx="96" cy="150" rx="20" ry="34" fill="#FFFFFF" opacity="0.25" transform="rotate(-18 96 150)"/>
  <!-- Thermometer -->
  <g transform="rotate(18 128 140)">
    <rect x="116" y="76" width="24" height="96" rx="12" fill="#FFFFFF"/>
    <circle cx="128" cy="182" r="26" fill="#FFFFFF"/>
    <rect x="123" y="96" width="10" height="72" rx="5" fill="#EF5350"/>
    <circle cx="128" cy="182" r="16" fill="#EF5350"/>
    <line x1="140" y1="92" x2="150" y2="92" stroke="#FFFFFF" stroke-width="4" stroke-linecap="round"/>
    <line x1="140" y1="112" x2="150" y2="112" stroke="#FFFFFF" stroke-width="4" stroke-linecap="round"/>
    <line x1="140" y1="132" x2="150" y2="132" stroke="#FFFFFF" stroke-width="4" stroke-linecap="round"/>
  </g>
</svg>
